<svg width="51" height="51" viewBox="0 0 51 51" fill="none" xmlns="http://www.w3.org/2000/svg">
<g clip-path="url(#clip0_406_165)">
<path d="M25.5 50.8182C39.3071 50.8182 50.5 39.6253 50.5 25.8182C50.5 12.0111 39.3071 0.818176 25.5 0.818176C11.6929 0.818176 0.5 12.0111 0.5 25.8182C0.5 39.6253 11.6929 50.8182 25.5 50.8182Z" fill="#6DA544"/>
<path d="M25.5 10.6008L46.1521 25.8182L25.5 41.0355L4.84784 25.8182L25.5 10.6008Z" fill="#FFDA44"/>
<path d="M25.5 34.5138C30.3024 34.5138 34.1956 30.6206 34.1956 25.8182C34.1956 21.0157 30.3024 17.1226 25.5 17.1226C20.6975 17.1226 16.8044 21.0157 16.8044 25.8182C16.8044 30.6206 20.6975 34.5138 25.5 34.5138Z" fill="#F0F0F0"/>
<path d="M21.1521 25.2747C19.64 25.2747 18.1808 25.5047 16.8071 25.9315C16.868 30.6815 20.7355 34.5139 25.5 34.5139C28.4461 34.5139 31.048 33.0474 32.621 30.8061C29.9299 27.4372 25.7892 25.2747 21.1521 25.2747V25.2747Z" fill="#0052B4"/>
<path d="M34.0345 27.4842C34.1392 26.9447 34.1957 26.3882 34.1957 25.8182C34.1957 21.0156 30.3025 17.1226 25.5001 17.1226C21.9167 17.1226 18.8405 19.2906 17.5093 22.3861C18.686 22.1423 19.9044 22.0139 21.1523 22.0139C26.2028 22.0138 30.7718 24.1132 34.0345 27.4842V27.4842Z" fill="#0052B4"/>
</g>
<defs>
<clipPath id="clip0_406_165">
<rect width="50" height="50" fill="white" transform="translate(0.5 0.818176)"/>
</clipPath>
</defs>
</svg>
