<svg width="51" height="51" viewBox="0 0 51 51" fill="none" xmlns="http://www.w3.org/2000/svg">
<g clip-path="url(#clip0_406_173)">
<path d="M25.5 50.8182C39.3071 50.8182 50.5 39.6253 50.5 25.8182C50.5 12.0111 39.3071 0.818176 25.5 0.818176C11.6929 0.818176 0.5 12.0111 0.5 25.8182C0.5 39.6253 11.6929 50.8182 25.5 50.8182Z" fill="#F0F0F0"/>
<path d="M25.5 0.818176C11.693 0.818176 0.5 12.0111 0.5 25.8182C0.5 28.8762 1.0501 31.8056 2.05498 34.5138H48.9451C49.95 31.8056 50.5 28.8762 50.5 25.8182C50.5 12.0111 39.307 0.818176 25.5 0.818176Z" fill="#0052B4"/>
<path d="M25.5 0.818176C14.7508 0.818176 5.58726 7.60255 2.05493 17.1226H48.9451C45.4126 7.60255 36.2491 0.818176 25.5 0.818176V0.818176Z" fill="#D80027"/>
<path d="M6.9646 14.9487V27.42C6.9646 34.5141 16.2323 36.6878 16.2323 36.6878C16.2323 36.6878 25.4999 34.5141 25.4999 27.42V14.9487H6.9646Z" fill="#D80027"/>
<path d="M10.7974 17.1225H21.667V12.7747L19.4931 13.8616L16.2322 10.6008L12.9713 13.8616L10.7974 12.7747V17.1225Z" fill="#FFDA44"/>
<path d="M23.326 29.1564L16.2608 22.0911L9.19556 29.1564L11.5013 31.4621L16.2608 26.7026L21.0203 31.4621L23.326 29.1564Z" fill="#FFDA44"/>
<path d="M23.326 22.5573H20.0295C20.2149 22.2374 20.3227 21.8669 20.3227 21.4706C20.3227 20.2698 19.3494 19.2967 18.1488 19.2967C17.3192 19.2967 16.5988 19.7613 16.2323 20.4444C15.8658 19.7614 15.1454 19.2967 14.3158 19.2967C13.1152 19.2967 12.1418 20.2698 12.1418 21.4706C12.1418 21.8669 12.2497 22.2375 12.435 22.5573H9.19556C9.19556 23.758 10.2414 24.7313 11.4418 24.7313H11.3695C11.3695 25.9319 12.3427 26.9052 13.5434 26.9052C13.5434 27.9683 14.3069 28.8515 15.3152 29.0405L13.6023 32.9079C14.4232 33.2416 15.3203 33.427 16.2609 33.427C17.2015 33.427 18.0986 33.2416 18.9195 32.9079L17.2066 29.0405C18.2149 28.8517 18.9784 27.9684 18.9784 26.9052C20.1791 26.9052 21.1523 25.9319 21.1523 24.7313H21.0799C22.2803 24.7313 23.326 23.7579 23.326 22.5573V22.5573Z" fill="#F0F0F0"/>
</g>
<defs>
<clipPath id="clip0_406_173">
<rect width="50" height="50" fill="white" transform="translate(0.5 0.818176)"/>
</clipPath>
</defs>
</svg>
